<svg width="200" height="200" viewBox="0 0 200 200" fill="none" xmlns="http://www.w3.org/2000/svg">
<path d="M43.6439 149.95V156.112V174.534C59.4179 177.44 78.7219 179.151 99.5719 179.151C120.42 179.151 139.723 177.44 155.499 174.534V149.95L155.487 148.862C155.065 130.007 143.66 113.858 127.42 106.563C137.838 98.331 144.525 85.583 144.525 71.272C144.525 46.446 124.4 26.3213 99.5719 26.3213C74.7429 26.3213 54.6169 46.446 54.6169 71.272C54.6169 85.583 61.3049 98.331 71.7249 106.563C55.1719 113.999 43.6439 130.63 43.6439 149.95Z" fill="url(#paint0_linear_2866_878)"/>
<path d="M49.4998 93.4988C45.3988 93.5498 41.0878 90.6572 41.0018 86.7552V28.9231C40.9168 25.0211 43.8138 21.0538 47.9148 21.0008H149.646C153.745 20.9458 158.058 23.841 158.142 27.743V41.8211C157.058 42.1471 155.671 42.598 154.652 43.178C147.587 47.199 145.328 55.9358 149.606 62.6858C151.666 65.9358 154.59 68.1331 158.142 69.0901V85.574C158.228 89.476 155.331 93.4428 151.23 93.4978L49.4998 93.4988Z" fill="url(#paint1_linear_2866_878)"/>
<path d="M130.123 27.804C130.157 29.261 128.944 30.4578 127.413 30.4778C125.885 30.4978 124.619 29.3332 124.586 27.8782C124.554 26.4232 125.768 25.2258 127.298 25.2058C128.828 25.1858 130.094 26.349 130.126 27.804H130.123ZM131.389 85.5252C131.421 86.9822 130.206 88.177 128.678 88.197C127.147 88.217 125.882 87.0519 125.851 85.5969C125.819 84.1419 127.033 82.947 128.561 82.927C130.091 82.908 131.357 84.0682 131.389 85.5252ZM131.208 77.281C131.24 78.734 130.026 79.9309 128.496 79.9529C126.968 79.9729 125.702 78.8078 125.67 77.3508C125.637 75.8958 126.852 74.7009 128.381 74.6809C129.912 74.6589 131.178 75.824 131.208 77.281ZM131.026 69.0339C131.06 70.4869 129.846 71.6818 128.316 71.7058C126.788 71.7268 125.521 70.5612 125.49 69.1062C125.457 67.6512 126.67 66.4538 128.201 66.4338C129.731 66.4128 130.996 67.5789 131.026 69.0339ZM130.848 60.7879C130.88 62.2429 129.666 63.4402 128.136 63.4602C126.608 63.4812 125.339 62.3171 125.308 60.8601C125.278 59.4051 126.491 58.2098 128.022 58.1878C129.55 58.1688 130.816 59.3309 130.848 60.7879ZM130.666 52.5418C130.697 53.9968 129.486 55.1921 127.955 55.2141C126.425 55.2341 125.159 54.071 125.127 52.614C125.097 51.159 126.311 49.9641 127.841 49.9421C129.369 49.9231 130.635 51.0848 130.666 52.5418ZM130.488 44.2962C130.517 45.7512 129.304 46.948 127.774 46.968C126.246 46.988 124.979 45.8249 124.948 44.3679C124.916 42.9129 126.129 41.7181 127.66 41.6961C129.188 41.6771 130.455 42.8412 130.488 44.2962ZM130.305 36.0501C130.338 37.5071 129.123 38.7019 127.596 38.7239C126.065 38.7439 124.798 37.5788 124.768 36.1238C124.736 34.6668 125.951 33.4719 127.479 33.4519C129.009 33.4309 130.274 34.5951 130.305 36.0501Z" fill="#A1FFFF"/>
<path d="M73.0279 54.9395C76.2579 55.2225 78.9709 54.478 81.1619 52.707C83.3529 50.936 84.6449 48.4341 85.0449 45.2031C85.3299 41.9691 84.5929 39.2563 82.8299 37.0703C81.0679 34.8843 78.5619 33.5933 75.3159 33.1953C72.0789 32.9123 69.3649 33.6543 67.1759 35.4253C64.9859 37.1963 63.6919 39.693 63.2959 42.917C63.0109 46.159 63.7579 48.874 65.5309 51.063C67.3069 53.251 69.8049 54.5445 73.0279 54.9395ZM66.7979 79.271L74.7459 79.8281L106.854 37.0532L98.9479 36.5L66.7979 79.271ZM73.7659 47.9331C72.6619 47.7941 71.7969 47.329 71.1719 46.542C70.5459 45.751 70.2809 44.7903 70.3779 43.6553C70.5199 42.5123 70.9809 41.6261 71.7529 40.9971C72.5279 40.3701 73.4709 40.1042 74.5779 40.2002C75.7089 40.3392 76.5779 40.7963 77.1969 41.5713C77.8119 42.3443 78.0719 43.307 77.9679 44.458C77.8289 45.587 77.3779 46.4703 76.6139 47.1123C75.8489 47.7553 74.8979 48.0291 73.7659 47.9331ZM98.8069 83.0342C102.028 83.3152 104.729 82.5732 106.916 80.8042C109.103 79.0352 110.395 76.5343 110.792 73.2983C111.076 70.0563 110.331 67.3412 108.562 65.1572C106.791 62.9712 104.3 61.682 101.094 61.29C97.8749 61.007 95.1719 61.751 92.9869 63.519C90.7989 65.289 89.5089 67.7904 89.1119 71.0234C88.8289 74.2654 89.5709 76.9824 91.3429 79.1694C93.1129 81.3534 95.6019 82.6422 98.8069 83.0342ZM99.5439 76.0293C98.4489 75.8903 97.5909 75.4271 96.9739 74.6421C96.3539 73.8571 96.0929 72.9001 96.1899 71.7671C96.3329 70.6151 96.7879 69.7242 97.5559 69.0952C98.3229 68.4682 99.2559 68.1993 100.358 68.2983C101.479 68.4333 102.344 68.8881 102.955 69.6631C103.562 70.4361 103.816 71.4032 103.713 72.5562C103.576 73.6832 103.129 74.57 102.37 75.208C101.61 75.849 100.668 76.1223 99.5439 76.0293Z" fill="#A1FFFF"/>
<path d="M43.6439 149.784V149.946V156.112V174.53C59.4179 177.44 78.7219 179.151 99.5719 179.151C120.42 179.151 139.723 177.44 155.499 174.53V149.946L155.487 148.862C155.415 145.706 155.038 142.628 154.382 139.655C138.019 137.497 119.369 136.276 99.5719 136.276C79.7759 136.276 61.1229 137.497 44.7599 139.655C44.0389 142.917 43.6549 146.308 43.6439 149.784Z" fill="url(#paint2_linear_2866_878)"/>
<defs>
<linearGradient id="paint0_linear_2866_878" x1="44.3057" y1="138.445" x2="161.747" y2="81.226" gradientUnits="userSpaceOnUse">
<stop stop-color="#4605FA"/>
<stop offset="1" stop-color="#9068FC"/>
</linearGradient>
<linearGradient id="paint1_linear_2866_878" x1="56.8913" y1="16.0551" x2="142.264" y2="98.4564" gradientUnits="userSpaceOnUse">
<stop stop-color="#0697E5"/>
<stop offset="0.8392" stop-color="#00FFFF"/>
<stop offset="1" stop-color="#00FFFF"/>
</linearGradient>
<linearGradient id="paint2_linear_2866_878" x1="43.3133" y1="138.198" x2="165.485" y2="179.648" gradientUnits="userSpaceOnUse">
<stop stop-color="#019AE2"/>
<stop offset="1" stop-color="#6600CC"/>
</linearGradient>
</defs>
</svg>
